<?xml version="1.0" encoding="UTF-8"?>
<svg width="40px" height="40px" viewBox="0 0 40 40" version="1.1" xmlns="http://www.w3.org/2000/svg" xmlns:xlink="http://www.w3.org/1999/xlink">
    <!-- Generator: Sketch 51.2 (57519) - http://www.bohemiancoding.com/sketch -->
    <title>1</title>
    <desc>Created with Sketch.</desc>
    <defs></defs>
    <g id="1" stroke="none" stroke-width="1" fill="none" fill-rule="evenodd">
        <path d="M8.97727773,24.6515479 L17.1582492,19.9767071 C18.2566443,19.3490527 18.685169,19.1868019 19.1892865,19.080058 C19.693404,18.973314 20.1834495,18.973314 20.687567,19.080058 C21.1916845,19.1868019 21.6202091,19.3490527 22.7186043,19.9767071 L30.8995757,24.6515479 C31.8586106,25.1995678 32.1918041,26.4212772 31.6437841,27.3803121 C31.4666055,27.6903746 31.2096383,27.9473419 30.8995757,28.1245205 L22.7186043,32.7993613 C21.6202091,33.4270157 21.1916845,33.5892665 20.687567,33.6960104 C20.1834495,33.8027544 19.693404,33.8027544 19.1892865,33.6960104 C18.685169,33.5892665 18.2566443,33.4270157 17.1582492,32.7993613 L8.97727773,28.1245205 C8.01824284,27.5765005 7.68504938,26.3547912 8.23306932,25.3957563 C8.41024792,25.0856938 8.66721517,24.8287265 8.97727773,24.6515479 Z" id="Rectangle-5-Copy" fill="#0B47D2" fill-rule="nonzero"></path>
        <path d="M30.4384267,24.3880342 L22.7186043,28.7993613 C21.6202091,29.4270157 21.1916845,29.5892665 20.687567,29.6960104 C20.1834495,29.8027544 19.693404,29.8027544 19.1892865,29.6960104 C18.685169,29.5892665 18.2566443,29.4270157 17.1582492,28.7993613 L9.43842673,24.3880342 L17.1582492,19.9767071 C18.2566443,19.3490527 18.685169,19.1868019 19.1892865,19.080058 C19.693404,18.973314 20.1834495,18.973314 20.687567,19.080058 C21.1916845,19.1868019 21.6202091,19.3490527 22.7186043,19.9767071 L30.4384267,24.3880342 Z" id="Rectangle-5-Copy-5" fill="#0A3EB7" fill-rule="nonzero"></path>
        <path d="M8.97727773,17.6515479 L17.1582492,12.9767071 C18.2566443,12.3490527 18.685169,12.1868019 19.1892865,12.080058 C19.693404,11.973314 20.1834495,11.973314 20.687567,12.080058 C21.1916845,12.1868019 21.6202091,12.3490527 22.7186043,12.9767071 L30.8995757,17.6515479 C31.8586106,18.1995678 32.1918041,19.4212772 31.6437841,20.3803121 C31.4666055,20.6903746 31.2096383,20.9473419 30.8995757,21.1245205 L22.7186043,25.7993613 C21.6202091,26.4270157 21.1916845,26.5892665 20.687567,26.6960104 C20.1834495,26.8027544 19.693404,26.8027544 19.1892865,26.6960104 C18.685169,26.5892665 18.2566443,26.4270157 17.1582492,25.7993613 L8.97727773,21.1245205 C8.01824284,20.5765005 7.68504938,19.3547912 8.23306932,18.3957563 C8.41024792,18.0856938 8.66721517,17.8287265 8.97727773,17.6515479 Z" id="Rectangle-5-Copy-2" fill="#1F8EED" fill-rule="nonzero"></path>
        <path d="M30.4384267,17.3880342 L22.7186043,21.7993613 C21.6202091,22.4270157 21.1916845,22.5892665 20.687567,22.6960104 C20.1834495,22.8027544 19.693404,22.8027544 19.1892865,22.6960104 C18.685169,22.5892665 18.2566443,22.4270157 17.1582492,21.7993613 L9.43842673,17.3880342 L17.1582492,12.9767071 C18.2566443,12.3490527 18.685169,12.1868019 19.1892865,12.080058 C19.693404,11.973314 20.1834495,11.973314 20.687567,12.080058 C21.1916845,12.1868019 21.6202091,12.3490527 22.7186043,12.9767071 L30.4384267,17.3880342 Z" id="Rectangle-5-Copy-4" fill="#1882DD" fill-rule="nonzero"></path>
        <path d="M8.97727773,10.6515479 L17.1582492,5.97670708 C18.2566443,5.34905269 18.685169,5.1868019 19.1892865,5.08005796 C19.693404,4.97331401 20.1834495,4.97331401 20.687567,5.08005796 C21.1916845,5.1868019 21.6202091,5.34905269 22.7186043,5.97670708 L30.8995757,10.6515479 C31.8586106,11.1995678 32.1918041,12.4212772 31.6437841,13.3803121 C31.4666055,13.6903746 31.2096383,13.9473419 30.8995757,14.1245205 L22.7186043,18.7993613 C21.6202091,19.4270157 21.1916845,19.5892665 20.687567,19.6960104 C20.1834495,19.8027544 19.693404,19.8027544 19.1892865,19.6960104 C18.685169,19.5892665 18.2566443,19.4270157 17.1582492,18.7993613 L8.97727773,14.1245205 C8.01824284,13.5765005 7.68504938,12.3547912 8.23306932,11.3957563 C8.41024792,11.0856938 8.66721517,10.8287265 8.97727773,10.6515479 Z" id="Rectangle-5-Copy-3" fill="#43CCF9" fill-rule="nonzero"></path>
        <polygon id="Fill-1" fill="#FFFFFF" points="23.1253432 12.2718431 24.1335 14.581582 20.1442297 14.0039283 16.1624046 14.581582 17.1442845 12.2718431 16.1335 9.96341805 20.12496 10.5393199 24.1102887 9.96341805"></polygon>
    </g>
</svg>