<?xml version="1.0" encoding="UTF-8"?>
<svg width="40px" height="40px" viewBox="0 0 40 40" version="1.1" xmlns="http://www.w3.org/2000/svg" xmlns:xlink="http://www.w3.org/1999/xlink">
    <!-- Generator: Sketch 51.2 (57519) - http://www.bohemiancoding.com/sketch -->
    <title>2</title>
    <desc>Created with Sketch.</desc>
    <defs>
        <linearGradient x1="50%" y1="56.4424813%" x2="50%" y2="97.7946527%" id="linearGradient-1">
            <stop stop-color="#0D4C80" offset="0%"></stop>
            <stop stop-color="#052239" offset="100%"></stop>
        </linearGradient>
        <linearGradient x1="50%" y1="6.59661975%" x2="50%" y2="98.8012839%" id="linearGradient-2">
            <stop stop-color="#82CDFF" offset="0%"></stop>
            <stop stop-color="#49B6FB" offset="24.5958273%"></stop>
            <stop stop-color="#1D86DF" offset="77.1789198%"></stop>
            <stop stop-color="#1963A2" offset="100%"></stop>
        </linearGradient>
        <linearGradient x1="50%" y1="0%" x2="50%" y2="100%" id="linearGradient-3">
            <stop stop-color="#115C90" offset="0%"></stop>
            <stop stop-color="#1468A4" offset="100%"></stop>
        </linearGradient>
        <rect id="path-4" x="0" y="0" width="4" height="11"></rect>
        <filter x="-25.0%" y="-9.1%" width="150.0%" height="118.2%" filterUnits="objectBoundingBox" id="filter-5">
            <feGaussianBlur stdDeviation="1" in="SourceAlpha" result="shadowBlurInner1"></feGaussianBlur>
            <feOffset dx="0" dy="0" in="shadowBlurInner1" result="shadowOffsetInner1"></feOffset>
            <feComposite in="shadowOffsetInner1" in2="SourceAlpha" operator="arithmetic" k2="-1" k3="1" result="shadowInnerInner1"></feComposite>
            <feColorMatrix values="0 0 0 0 0   0 0 0 0 0   0 0 0 0 0  0 0 0 0.140851449 0" type="matrix" in="shadowInnerInner1"></feColorMatrix>
        </filter>
        <linearGradient x1="50%" y1="0%" x2="50%" y2="100%" id="linearGradient-6">
            <stop stop-color="#FFFFFF" offset="0%"></stop>
            <stop stop-color="#F0F0F0" offset="100%"></stop>
        </linearGradient>
        <path d="M12.5705534,8 L13.4294466,8 C14.4363954,8 14.9763797,8.13923842 15.4652686,8.40069906 C15.9541574,8.66215969 16.3378403,9.04584256 16.5993009,9.53473144 C16.8607616,10.0236203 17,10.5636046 17,11.5705534 L17,13.4294466 C17,14.4363954 16.8607616,14.9763797 16.5993009,15.4652686 C16.3378403,15.9541574 15.9541574,16.3378403 15.4652686,16.5993009 C14.9763797,16.8607616 14.4363954,17 13.4294466,17 L12.5705534,17 C11.5636046,17 11.0236203,16.8607616 10.5347314,16.5993009 C10.0458426,16.3378403 9.66215969,15.9541574 9.40069906,15.4652686 C9.13923842,14.9763797 9,14.4363954 9,13.4294466 L9,11.5705534 C9,10.5636046 9.13923842,10.0236203 9.40069906,9.53473144 C9.66215969,9.04584256 10.0458426,8.66215969 10.5347314,8.40069906 C11.0236203,8.13923842 11.5636046,8 12.5705534,8 Z M12.5,12 C11.6715729,12 11,12.6715729 11,13.5 C11,14.3284271 11.6715729,15 12.5,15 L13.5,15 C14.3284271,15 15,14.3284271 15,13.5 C15,12.6715729 14.3284271,12 13.5,12 L12.5,12 Z" id="path-7"></path>
        <filter x="-62.5%" y="-44.4%" width="225.0%" height="211.1%" filterUnits="objectBoundingBox" id="filter-8">
            <feOffset dx="0" dy="1" in="SourceAlpha" result="shadowOffsetOuter1"></feOffset>
            <feGaussianBlur stdDeviation="1.5" in="shadowOffsetOuter1" result="shadowBlurOuter1"></feGaussianBlur>
            <feColorMatrix values="0 0 0 0 0   0 0 0 0 0   0 0 0 0 0  0 0 0 0.184527853 0" type="matrix" in="shadowBlurOuter1"></feColorMatrix>
        </filter>
    </defs>
    <g id="2" stroke="none" stroke-width="1" fill="none" fill-rule="evenodd">
        <g id="Group-2" transform="translate(7.000000, 6.000000)" fill-rule="nonzero">
            <rect id="Rectangle" fill="url(#linearGradient-1)" x="0" y="12" width="26" height="16" rx="6"></rect>
            <rect id="Rectangle-Copy-2" fill="url(#linearGradient-2)" x="0" y="0" width="26" height="23" rx="6"></rect>
            <g id="Group" transform="translate(11.000000, 0.000000)">
                <g id="Rectangle-3">
                    <use fill="url(#linearGradient-3)" xlink:href="#path-4"></use>
                    <use fill="black" fill-opacity="1" filter="url(#filter-5)" xlink:href="#path-4"></use>
                </g>
            </g>
            <g id="Rectangle-Copy">
                <use fill="black" fill-opacity="1" filter="url(#filter-8)" xlink:href="#path-7"></use>
                <use fill="url(#linearGradient-6)" xlink:href="#path-7"></use>
            </g>
        </g>
    </g>
</svg>