<?xml version="1.0" encoding="UTF-8"?>
<svg width="22px" height="22px" viewBox="0 0 22 22" version="1.1" xmlns="http://www.w3.org/2000/svg" xmlns:xlink="http://www.w3.org/1999/xlink">
    <!-- Generator: Sketch 51.2 (57519) - http://www.bohemiancoding.com/sketch -->
    <title>Octicons-mark-github</title>
    <desc>Created with Sketch.</desc>
    <defs></defs>
    <g id="Page-1" stroke="none" stroke-width="1" fill="none" fill-rule="evenodd">
        <g id="lander" transform="translate(-1369.000000, -38.000000)" fill="#FFFFFF">
            <g id="Group-16" transform="translate(31.000000, 24.000000)">
                <g id="Group-8" transform="translate(1183.000000, 0.000000)">
                    <g id="Octicons-mark-github" transform="translate(155.000000, 14.463379)">
                        <path d="M11,0 C4.9225,0 0,4.9225 0,11 C0,15.8675 3.14875,19.97875 7.52125,21.43625 C8.07125,21.5325 8.2775,21.2025 8.2775,20.91375 C8.2775,20.6525 8.26375,19.78625 8.26375,18.865 C5.5,19.37375 4.785,18.19125 4.565,17.5725 C4.44125,17.25625 3.905,16.28 3.4375,16.01875 C3.0525,15.8125 2.5025,15.30375 3.42375,15.29 C4.29,15.27625 4.90875,16.0875 5.115,16.4175 C6.105,18.08125 7.68625,17.61375 8.31875,17.325 C8.415,16.61 8.70375,16.12875 9.02,15.85375 C6.5725,15.57875 4.015,14.63 4.015,10.4225 C4.015,9.22625 4.44125,8.23625 5.1425,7.46625 C5.0325,7.19125 4.6475,6.06375 5.2525,4.55125 C5.2525,4.55125 6.17375,4.2625 8.2775,5.67875 C9.1575,5.43125 10.0925,5.3075 11.0275,5.3075 C11.9625,5.3075 12.8975,5.43125 13.7775,5.67875 C15.88125,4.24875 16.8025,4.55125 16.8025,4.55125 C17.4075,6.06375 17.0225,7.19125 16.9125,7.46625 C17.61375,8.23625 18.04,9.2125 18.04,10.4225 C18.04,14.64375 15.46875,15.57875 13.02125,15.85375 C13.42,16.1975 13.76375,16.8575 13.76375,17.88875 C13.76375,19.36 13.75,20.5425 13.75,20.91375 C13.75,21.2025 13.95625,21.54625 14.50625,21.43625 C18.85125,19.97875 22,15.85375 22,11 C22,4.9225 17.0775,0 11,0 Z" id="Shape"></path>
                    </g>
                </g>
            </g>
        </g>
    </g>
</svg>